<?xml version="1.0" encoding="UTF-8" standalone="no"?>
<!-- Created with Inkscape (http://www.inkscape.org/) -->

<svg
   xmlns:osb="http://www.openswatchbook.org/uri/2009/osb"
   xmlns:dc="http://purl.org/dc/elements/1.1/"
   xmlns:cc="http://creativecommons.org/ns#"
   xmlns:rdf="http://www.w3.org/1999/02/22-rdf-syntax-ns#"
   xmlns:svg="http://www.w3.org/2000/svg"
   xmlns="http://www.w3.org/2000/svg"
   xmlns:xlink="http://www.w3.org/1999/xlink"
   xmlns:sodipodi="http://sodipodi.sourceforge.net/DTD/sodipodi-0.dtd"
   xmlns:inkscape="http://www.inkscape.org/namespaces/inkscape"
   width="210mm"
   height="297mm"
   viewBox="0 0 210 297"
   version="1.1"
   id="svg8"
   inkscape:version="0.92.3 (2405546, 2018-03-11)"
   sodipodi:docname="c.svg">
  <defs
     id="defs2">
    <linearGradient
       inkscape:collect="always"
       id="linearGradient925">
      <stop
         style="stop-color:#ff5555;stop-opacity:1;"
         offset="0"
         id="stop921" />
      <stop
         style="stop-color:#000080;stop-opacity:1"
         offset="1"
         id="stop923" />
    </linearGradient>
    <linearGradient
       id="linearGradient833"
       osb:paint="solid">
      <stop
         style="stop-color:#000000;stop-opacity:1;"
         offset="0"
         id="stop831" />
    </linearGradient>
    <linearGradient
       inkscape:collect="always"
       xlink:href="#linearGradient925"
       id="linearGradient927"
       x1="131.15532"
       y1="33.640121"
       x2="57.106148"
       y2="132.30588"
       gradientUnits="userSpaceOnUse" />
  </defs>
  <sodipodi:namedview
     id="base"
     pagecolor="#ffffff"
     bordercolor="#666666"
     borderopacity="1.0"
     inkscape:pageopacity="0.0"
     inkscape:pageshadow="2"
     inkscape:zoom="0.6671875"
     inkscape:cx="412.96241"
     inkscape:cy="809.87352"
     inkscape:document-units="mm"
     inkscape:current-layer="layer1"
     showgrid="false"
     showguides="false"
     inkscape:window-width="1299"
     inkscape:window-height="713"
     inkscape:window-x="67"
     inkscape:window-y="27"
     inkscape:window-maximized="1" />
  <metadata
     id="metadata5">
    <rdf:RDF>
      <cc:Work
         rdf:about="">
        <dc:format>image/svg+xml</dc:format>
        <dc:type
           rdf:resource="http://purl.org/dc/dcmitype/StillImage" />
        <dc:title></dc:title>
      </cc:Work>
    </rdf:RDF>
  </metadata>
  <g
     inkscape:label="Layer 1"
     inkscape:groupmode="layer"
     id="layer1">
    <path
       style="opacity:1;vector-effect:none;fill:url(#linearGradient927);fill-opacity:1;fill-rule:evenodd;stroke-width:0.23584254;stroke-linecap:butt;stroke-linejoin:miter;stroke-miterlimit:4;stroke-dasharray:none;stroke-dashoffset:0;stroke-opacity:1"
       d="m 114.76304,29.027487 c -1.69827,0.0039 -3.40395,0.148521 -5.09995,0.435632 2.04573,1.268571 3.95592,2.734771 5.70404,4.37286 2.30428,-0.545333 4.69349,-0.868623 7.14324,-0.948263 -1.29599,-1.059677 -2.69347,-2.030554 -4.19148,-2.89543 -0.56105,-0.323915 -1.12833,-0.626202 -1.70015,-0.911572 -0.61707,-0.03548 -1.23581,-0.05463 -1.8557,-0.05323 z m -24.106023,0.04702 c -0.648483,0 -1.2921,0.02264 -1.930633,0.0615 -2.063456,1.038595 -4.02069,2.310928 -5.828585,3.807003 2.40592,0.07571 4.793263,0.390817 7.126181,0.935343 1.722449,-1.623928 3.628647,-3.097913 5.70973,-4.391463 -1.652114,-0.269679 -3.347035,-0.412378 -5.076693,-0.412378 z m 12.071093,2.416907 c -1.17397,0.497853 -2.33017,1.071746 -3.46335,1.725993 -1.28791,0.743576 -2.50113,1.566596 -3.640088,2.455664 2.494193,1.027519 4.880848,2.33399 7.107058,3.907255 2.1911,-1.564315 4.56378,-2.889334 7.07915,-3.939294 -2.15176,-1.677576 -4.53005,-3.07874 -7.08277,-4.149618 z m 26.8857,1.262972 c 0.20893,0.232132 0.41476,0.466448 0.61702,0.703316 0.30973,0.05669 0.61754,0.117868 0.92449,0.182418 -0.50576,-0.310764 -1.02042,-0.605296 -1.54151,-0.885734 z m -5.91282,5.131987 c -1.48687,0 -2.94785,0.10607 -4.37854,0.306441 1.64563,2.136371 3.05819,4.460765 4.19923,6.935495 0.74365,-0.07197 1.49027,-0.118362 2.23862,-0.14418 l 3.76979,-3.940325 c -0.59719,-1.004893 -1.24943,-1.981264 -1.96267,-2.91972 -1.2665,-0.156039 -2.55697,-0.237711 -3.86643,-0.237711 z M 81.740247,37.9179 c -1.27576,0.0029 -2.555949,0.08542 -3.832839,0.24753 -0.768122,1.018509 -1.483344,2.094569 -2.137854,3.228227 -0.743376,1.287552 -1.382152,2.606413 -1.923915,3.945495 2.673368,-0.356981 5.392901,-0.418862 8.106999,-0.169497 C 83.06818,42.719214 84.46051,40.385218 86.11414,38.21814 84.668814,38.016424 83.207758,37.9145 81.740247,37.9179 Z m 32.152043,1.539958 c -2.54213,0.839778 -4.938,1.996449 -7.14117,3.425114 1.43565,1.36515 2.76988,2.864136 3.98736,4.488098 a 34.408562,34.408562 0 0 1 2.07687,0.479558 c 1.80627,-0.765657 3.66909,-1.386933 5.57176,-1.851568 -1.21803,-2.375045 -2.73308,-4.570507 -4.49482,-6.541202 z m -22.337137,0.02481 c -1.781336,1.998216 -3.277698,4.198391 -4.471045,6.537069 2.327732,0.561269 4.626247,1.362916 6.861079,2.412773 a 34.408562,34.408562 0 0 1 0.06098,-0.02016 c 1.386697,-1.991135 2.965752,-3.838406 4.714441,-5.510774 -2.242905,-1.448437 -4.65369,-2.592858 -7.165454,-3.418912 z m -20.710882,0.4439 c -1.56569,0.592524 -3.10534,1.316911 -4.603334,2.181778 -0.07315,0.04223 -0.143904,0.08694 -0.216525,0.12971 a 54.726001,54.726001 0 0 0 -2.515092,2.686655 c -0.793271,1.407126 -1.482656,2.880747 -2.05259,4.413684 2.12121,-1.137155 4.345988,-2.058011 6.638357,-2.752801 0.679722,-2.267887 1.59359,-4.498036 2.749184,-6.659026 z m 31.883839,6.057511 c -0.31426,0.285986 -0.62071,0.579983 -0.92294,0.878499 a 34.408562,34.408562 0 0 1 1.76889,-0.07855 c -0.27803,-0.27192 -0.55925,-0.539779 -0.84595,-0.799952 z m -24.061059,4.029213 c -2.171285,-0.005 -4.330409,0.219585 -6.441467,0.660424 -0.543737,2.621541 -0.73888,5.275257 -0.603065,7.897709 2.307945,-0.680974 4.710713,-1.137492 7.184057,-1.344105 0.203655,-2.433346 0.650166,-4.83744 1.332735,-7.174756 -0.491209,-0.02441 -0.981876,-0.03817 -1.47226,-0.03927 z m 6.483842,0.703315 c -0.259075,0.812152 -0.483291,1.63499 -0.674894,2.465483 a 34.408562,34.408562 0 0 1 2.944521,-1.88206 c -0.752586,-0.2236 -1.509641,-0.418817 -2.269627,-0.583428 z m -18.271236,1.583365 c -2.528403,1.024554 -4.930889,2.383671 -7.13445,4.058668 -0.155953,1.266129 -0.237194,2.555833 -0.237194,3.86488 0,1.486876 0.106043,2.947884 0.306441,4.378545 2.136769,-1.645989 4.4617,-3.059115 6.937044,-4.200261 -0.259273,-2.680067 -0.220231,-5.398145 0.128159,-8.101832 z m -12.368238,9.113657 c -0.731505,0.894625 -1.417036,1.840958 -2.058272,2.831867 a 54.726001,54.726001 0 0 0 -1.74408,6.676078 c 0.06584,1.113269 0.190349,2.226956 0.378272,3.336748 1.26855,-2.045621 2.734797,-3.955553 4.37286,-5.703528 -0.545143,-2.303968 -0.86919,-4.691785 -0.94878,-7.141165 z m 20.87056,1.376143 c -1.04906,0.220737 -2.079112,0.493149 -3.086116,0.81597 0.237913,1.090692 0.536234,2.167601 0.889352,3.226678 a 34.408562,34.408562 0 0 1 2.196764,-4.042648 z m -7.759732,2.746087 c -2.375411,1.218051 -4.571886,2.733894 -6.542754,4.495847 0.839991,2.54249 1.997014,4.938345 3.426148,7.141684 1.658498,-1.744097 3.511502,-3.340947 5.550566,-4.756817 -1.04027,-2.209215 -1.85639,-4.51522 -2.43396,-6.880714 z m -10.358025,8.57622 c -1.677201,2.151295 -3.078398,4.529007 -4.1491,7.08122 0.497871,1.173959 1.072263,2.330681 1.72651,3.463873 0.743465,1.287719 1.56624,2.500188 2.455147,3.639052 1.027433,-2.493068 2.333988,-4.878168 3.906737,-7.10344 -1.564661,-2.191523 -2.889202,-4.564772 -3.939294,-7.080705 z m 12.877768,4.593518 c -0.898726,0.787403 -1.746056,1.617821 -2.536795,2.489253 0.78813,0.865944 1.626102,1.685367 2.506821,2.457214 a 34.408562,34.408562 0 0 1 -0.0925,-2.489771 34.408562,34.408562 0 0 1 0.122472,-2.456696 z m -5.617747,6.496759 c -1.447945,2.242349 -2.592059,4.652301 -3.417876,7.163387 1.998411,1.781839 4.198617,3.278315 6.537584,4.47208 0.564179,-2.339289 1.37007,-4.648353 2.427758,-6.893636 -2.005475,-1.393119 -3.864615,-2.981981 -5.547466,-4.741831 z m -13.414166,2.98845 c -0.187347,1.14839 -0.309179,2.318584 -0.368453,3.505729 a 54.726001,54.726001 0 0 0 1.687752,6.413561 c 0.65202,1.007494 1.363689,1.981884 2.136303,2.915584 0.07578,-2.405983 0.390667,-4.793215 0.935344,-7.126179 -1.623728,-1.722183 -3.097505,-3.628054 -4.390946,-5.708695 z m 22.110277,7.36699 c -0.352819,1.062535 -0.645848,2.135137 -0.879533,3.213758 0.99541,0.31762 2.006404,0.58329 3.028757,0.799434 a 34.408562,34.408562 0 0 1 -2.149224,-4.013192 z m -13.379026,2.251543 c -0.37682,2.702101 -0.400172,5.461731 -0.05116,8.207761 1.018214,0.76783 2.093394,1.48356 3.226675,2.13785 1.287585,0.74339 2.606379,1.38215 3.945496,1.92392 -0.357068,-2.67368 -0.418925,-5.39361 -0.1695,-8.10803 -2.450412,-1.11556 -4.784436,-2.507927 -6.951511,-4.161501 z m 11.834418,5.974831 c -0.132858,2.66636 0.08071,5.32622 0.621151,7.91424 2.622114,0.54387 5.276263,0.73956 7.89926,0.60358 -0.681162,-2.30815 -1.137867,-4.71103 -1.34462,-7.18458 -2.433524,-0.20372 -4.838298,-0.65057 -7.175791,-1.33324 z m 12.889134,5.44618 c 0.190357,0.81192 0.411441,1.61224 0.663528,2.3983 0.744553,-0.1624 1.482293,-0.35406 2.212784,-0.57051 a 34.408562,34.408562 0 0 1 -2.876312,-1.82779 z m -23.012548,3.85093 c 0.58706,1.55047 1.303957,3.07518 2.158008,4.55941 a 54.726001,54.726001 0 0 0 2.287199,2.45515 c 1.571093,0.92871 3.230089,1.72577 4.964038,2.3704 -1.136925,-2.12099 -2.057622,-4.34523 -2.752286,-6.63732 -2.267061,-0.67948 -4.496705,-1.59264 -6.656959,-2.74764 z m 32.383037,0.83457 c -2.177675,1.01708 -4.44831,1.81739 -6.776847,2.38591 1.217985,2.37488 2.733712,4.57062 4.495331,6.5412 2.542403,-0.83998 4.938327,-1.99763 7.141684,-3.42667 -1.710021,-1.62619 -3.277976,-3.44009 -4.6731,-5.43222 a 34.408562,34.408562 0 0 1 -0.187068,-0.0682 z m 18.983341,0.5364 a 34.408562,34.408562 0 0 1 -2.16783,0.52194 c -1.18808,1.57903 -2.49908,3.06053 -3.92483,4.42402 2.24256,1.44832 4.65309,2.59283 7.16443,3.41891 1.78119,-1.99803 3.27659,-4.1981 4.47001,-6.53656 -1.87261,-0.45166 -3.72515,-1.06149 -5.54178,-1.82831 z m -11.01949,0.99219 c 0.30149,0.29689 0.60653,0.58883 0.91829,0.87179 0.28096,-0.25571 0.55547,-0.5187 0.82683,-0.78446 a 34.408562,34.408562 0 0 1 -1.74512,-0.0873 z m -27.975548,1.59938 c 1.024303,2.5278 2.382158,4.92978 4.0566,7.13291 1.265917,0.15593 2.555509,0.23719 3.864364,0.23719 1.487262,0 2.949051,-0.10593 4.380092,-0.30644 -1.645579,-2.13651 -3.05775,-4.46059 -4.19871,-6.93549 -2.680438,0.25941 -5.398262,0.22029 -8.102346,-0.12817 z m 49.049198,1.37512 c -0.99834,1.98135 -2.17918,3.87927 -3.53983,5.6627 2.70204,0.37702 5.46127,0.40153 8.20725,0.0527 0.18234,-0.2418 0.36162,-0.48709 0.53795,-0.73535 z m -20.15794,4.30051 c -2.19123,1.56445 -4.564707,2.89025 -7.080188,3.94033 2.151433,1.67731 4.529438,3.07827 7.081738,4.14909 1.17393,-0.49785 2.33068,-1.07174 3.46387,-1.72599 1.28795,-0.7436 2.50054,-1.56655 3.63957,-2.45566 -2.49365,-1.02764 -4.87923,-2.33463 -7.10499,-3.90777 z m 12.70775,5.70301 c -1.72209,1.62373 -3.62763,3.09854 -5.70818,4.39197 1.65119,0.26937 3.34598,0.41135 5.07463,0.41135 0.64904,0 1.2931,-0.0215 1.93218,-0.0605 2.06308,-1.03845 4.01994,-2.31074 5.82755,-3.80648 -2.40598,-0.0759 -4.7932,-0.39164 -7.12618,-0.93639 z m -25.34367,0.0413 c -2.30419,0.54544 -4.692631,0.86898 -7.142202,0.94878 1.296041,1.05972 2.693422,2.03052 4.191477,2.89543 0.56048,0.32358 1.127373,0.62595 1.698603,0.91106 2.307855,0.13275 4.640302,0.0101 6.95565,-0.38189 -2.045639,-1.26862 -3.955505,-2.73521 -5.703528,-4.37338 z m 41.08483,0.12868 c -0.30423,0.0646 -0.60919,0.1254 -0.91416,0.1819 -0.20321,0.23902 -0.40895,0.47472 -0.61753,0.70745 0.51997,-0.28165 1.03017,-0.57949 1.53169,-0.88935 z"
       id="path817"
       inkscape:connector-curvature="0" />
  </g>
</svg>
