<?xml version="1.0" encoding="UTF-8" standalone="no"?>
<!-- Created with Inkscape (http://www.inkscape.org/) -->

<svg
   xmlns:dc="http://purl.org/dc/elements/1.1/"
   xmlns:cc="http://creativecommons.org/ns#"
   xmlns:rdf="http://www.w3.org/1999/02/22-rdf-syntax-ns#"
   xmlns:svg="http://www.w3.org/2000/svg"
   xmlns="http://www.w3.org/2000/svg"
   xmlns:xlink="http://www.w3.org/1999/xlink"
   xmlns:sodipodi="http://sodipodi.sourceforge.net/DTD/sodipodi-0.dtd"
   xmlns:inkscape="http://www.inkscape.org/namespaces/inkscape"
   width="210mm"
   height="297mm"
   viewBox="0 0 210 297"
   version="1.1"
   id="svg8"
   inkscape:version="0.92.3 (2405546, 2018-03-11)"
   sodipodi:docname="Nsvg.svg">
  <defs
     id="defs2">
    <linearGradient
       inkscape:collect="always"
       id="linearGradient1100">
      <stop
         style="stop-color:#00ffcc;stop-opacity:1"
         offset="0"
         id="stop1096" />
      <stop
         style="stop-color:#d42aff;stop-opacity:1"
         offset="1"
         id="stop1098" />
    </linearGradient>
    <linearGradient
       inkscape:collect="always"
       xlink:href="#linearGradient1100"
       id="linearGradient1104"
       x1="207.8761"
       y1="662.11462"
       x2="590.15491"
       y2="246.72998"
       gradientUnits="userSpaceOnUse" />
  </defs>
  <sodipodi:namedview
     id="base"
     pagecolor="#ffffff"
     bordercolor="#666666"
     borderopacity="1.0"
     inkscape:pageopacity="0.0"
     inkscape:pageshadow="2"
     inkscape:zoom="0.78"
     inkscape:cx="344.92408"
     inkscape:cy="684.32658"
     inkscape:document-units="mm"
     inkscape:current-layer="layer1"
     showgrid="false"
     inkscape:window-width="1299"
     inkscape:window-height="713"
     inkscape:window-x="67"
     inkscape:window-y="27"
     inkscape:window-maximized="1" />
  <metadata
     id="metadata5">
    <rdf:RDF>
      <cc:Work
         rdf:about="">
        <dc:format>image/svg+xml</dc:format>
        <dc:type
           rdf:resource="http://purl.org/dc/dcmitype/StillImage" />
        <dc:title></dc:title>
      </cc:Work>
    </rdf:RDF>
  </metadata>
  <g
     inkscape:label="Layer 1"
     inkscape:groupmode="layer"
     id="layer1">
    <path
       style="color:#000000;font-style:normal;font-variant:normal;font-weight:normal;font-stretch:normal;font-size:medium;line-height:normal;font-family:sans-serif;font-variant-ligatures:normal;font-variant-position:normal;font-variant-caps:normal;font-variant-numeric:normal;font-variant-alternates:normal;font-feature-settings:normal;text-indent:0;text-align:start;text-decoration:none;text-decoration-line:none;text-decoration-style:solid;text-decoration-color:#000000;letter-spacing:normal;word-spacing:normal;text-transform:none;writing-mode:lr-tb;direction:ltr;text-orientation:mixed;dominant-baseline:auto;baseline-shift:baseline;text-anchor:start;white-space:normal;shape-padding:0;clip-rule:nonzero;display:inline;overflow:visible;visibility:visible;opacity:1;isolation:auto;mix-blend-mode:normal;color-interpolation:sRGB;color-interpolation-filters:linearRGB;solid-color:#000000;solid-opacity:1;vector-effect:none;fill:url(#linearGradient1104);fill-opacity:1;fill-rule:nonzero;stroke:none;stroke-width:10.26411629;stroke-linecap:round;stroke-linejoin:miter;stroke-miterlimit:4;stroke-dasharray:none;stroke-dashoffset:0;stroke-opacity:1;color-rendering:auto;image-rendering:auto;shape-rendering:auto;text-rendering:auto;enable-background:accumulate"
       d="M 289.33984 252.2168 C 288.00634 252.23305 286.73145 252.76735 285.78516 253.70703 L 219.64844 324.68164 C 214.60135 329.43166 292.91406 261.0918 292.91406 261.0918 C 296.32836 257.88798 294.02158 252.16011 289.33984 252.2168 z M 535.58984 252.71875 C 534.25635 252.735 532.98144 253.2693 532.03516 254.20898 L 482.82617 308.8418 C 477.77892 313.59181 539.16406 261.59375 539.16406 261.59375 C 542.57837 258.38993 540.27158 252.66206 535.58984 252.71875 z M 242.19922 258.02344 C 240.86571 258.03969 239.59083 258.57398 238.64453 259.51367 L 226.70117 278.17188 C 224.30835 287.24653 245.77344 266.89844 245.77344 266.89844 C 249.18773 263.69462 246.88095 257.96675 242.19922 258.02344 z M 319.99609 262.33008 C 318.66259 262.34633 317.3877 262.88063 316.44141 263.82031 L 219.64844 364.38867 C 214.60074 369.13868 323.57031 271.20508 323.57031 271.20508 C 326.98461 268.00126 324.67783 262.27339 319.99609 262.33008 z M 564.78711 264.24219 C 563.45362 264.25844 562.1787 264.79274 561.23242 265.73242 L 483.88281 347.53125 C 478.83552 352.28127 568.36133 273.11719 568.36133 273.11719 C 571.77564 269.91337 569.46885 264.1855 564.78711 264.24219 z M 337.32227 285.30469 C 335.98876 285.32094 334.71387 285.85523 333.76758 286.79492 L 219.64844 404.08984 C 214.60196 408.83988 340.89648 294.17969 340.89648 294.17969 C 344.31077 290.97587 342.004 285.24801 337.32227 285.30469 z M 578.03906 291.15039 C 576.70557 291.16664 575.43066 291.70094 574.48438 292.64062 L 484.94141 386.21094 C 479.89268 390.96093 581.61328 300.02539 581.61328 300.02539 C 585.02759 296.82157 582.7208 291.0937 578.03906 291.15039 z M 353.54883 309.33984 C 352.21532 309.3561 350.94044 309.89039 349.99414 310.83008 L 219.64844 443.78711 C 214.71221 448.53949 357.12305 318.21484 357.12305 318.21484 C 360.53734 315.01103 358.23056 309.28316 353.54883 309.33984 z M 578.53906 330.36523 C 577.20557 330.38149 575.93066 330.91578 574.98438 331.85547 L 485.99805 424.88672 C 480.94935 429.63672 582.11328 339.24023 582.11328 339.24023 C 585.52759 336.03642 583.2208 330.30855 578.53906 330.36523 z M 369.78125 333.37695 C 368.44775 333.39321 367.17286 333.9275 366.22656 334.86719 L 314.46875 391.96484 C 309.34306 396.71148 373.35547 342.25195 373.35547 342.25195 C 376.76976 339.04813 374.46298 333.32026 369.78125 333.37695 z M 386.00977 357.41016 C 384.67627 357.42641 383.40136 357.96071 382.45508 358.90039 L 329.75781 416.90234 C 324.70931 421.65234 389.58398 366.28516 389.58398 366.28516 C 392.9983 363.08134 390.6915 357.35347 386.00977 357.41016 z M 578.53906 370.06445 C 577.20557 370.08071 575.93066 370.61499 574.98438 371.55469 L 487.05469 463.56836 C 482.00804 468.31836 582.11328 378.93945 582.11328 378.93945 C 585.52756 375.73563 583.2208 370.00777 578.53906 370.06445 z M 402.23828 381.44336 C 400.90479 381.45848 399.62987 381.99389 398.68359 382.93359 L 345.04492 441.84375 C 339.99642 446.59375 405.8125 390.31836 405.8125 390.31836 C 409.22681 387.11453 406.92002 381.38667 402.23828 381.44336 z M 310.34375 390.75586 C 309.00957 390.77098 307.73389 391.30594 306.78711 392.24609 L 219.64844 483.49609 C 214.60196 488.24613 313.91602 399.63086 313.91602 399.63086 C 317.32952 396.42767 315.02449 390.70102 310.34375 390.75586 z M 418.4707 405.48438 C 417.13721 405.49949 415.8623 406.03491 414.91602 406.97461 L 360.33594 466.79297 C 355.39971 471.54535 422.04492 414.35937 422.04492 414.35938 C 425.45916 411.15555 423.1524 405.42772 418.4707 405.48438 z M 578.53906 409.76172 C 577.20557 409.77684 575.93066 410.31225 574.98438 411.25195 L 488.11328 502.24219 C 483.06459 506.99218 582.11328 418.63672 582.11328 418.63672 C 585.52759 415.43289 583.2208 409.70503 578.53906 409.76172 z M 311.34961 429.48047 C 310.01611 429.49559 308.74122 430.031 307.79492 430.9707 L 219.64844 523.19336 C 214.60196 527.94339 314.92383 438.35547 314.92383 438.35547 C 318.33814 435.15164 316.03136 429.42378 311.34961 429.48047 z M 434.69727 429.51758 C 433.36377 429.5327 432.08886 430.06811 431.14258 431.00781 L 375.62305 491.73633 C 370.57618 496.48632 438.27148 438.39258 438.27148 438.39258 C 441.6858 435.18875 439.379 429.46089 434.69727 429.51758 z M 578.53906 449.46094 C 577.20557 449.47606 575.93066 450.01147 574.98438 450.95117 L 436.77539 591.5 C 431.7287 596.25 582.11328 458.33594 582.11328 458.33594 C 585.52759 455.13211 583.2208 449.40424 578.53906 449.46094 z M 450.92578 453.55078 C 449.59229 453.5659 448.31737 454.10131 447.37109 455.04102 L 390.91211 516.67383 C 385.86338 521.42382 454.5 462.42578 454.5 462.42578 C 457.91424 459.22195 455.60748 453.49413 450.92578 453.55078 z M 312.35938 468.20508 C 311.02587 468.2202 309.75098 468.75561 308.80469 469.69531 L 219.64844 562.89258 C 214.60196 567.64261 315.93359 477.08008 315.93359 477.08008 C 319.3479 473.87625 317.04112 468.14839 312.35938 468.20508 z M 467.1543 477.58398 C 465.8208 477.5991 464.54589 478.13451 463.59961 479.07422 L 406.19922 541.61914 C 401.15253 546.36914 470.72852 486.45898 470.72852 486.45898 C 474.14283 483.25515 471.83604 477.52729 467.1543 477.58398 z M 578.53906 489.16992 C 577.20557 489.18504 575.93066 489.72045 574.98438 490.66016 L 452.64648 615.88867 C 447.59979 620.63867 582.11328 498.04492 582.11328 498.04492 C 585.52752 494.84109 583.22076 489.11327 578.53906 489.16992 z M 483.38281 501.61719 C 482.04932 501.63231 480.77441 502.16772 479.82812 503.10742 L 421.48633 566.56055 C 416.4376 571.31054 486.95703 510.49219 486.95703 510.49219 C 490.37127 507.28836 488.06451 501.56053 483.38281 501.61719 z M 313.36914 506.93945 C 312.03564 506.95457 310.76075 507.48998 309.81445 508.42969 L 220.22266 602.04492 C 215.17416 606.79492 316.94336 515.81445 316.94336 515.81445 C 320.3576 512.61062 318.05084 506.8828 313.36914 506.93945 z M 578.53906 528.86719 C 577.20557 528.88231 575.93066 529.41772 574.98438 530.35742 L 474.95508 634.04883 C 469.90635 638.79882 582.11328 537.74219 582.11328 537.74219 C 585.52759 534.53836 583.2208 528.81049 578.53906 528.86719 z M 314.37695 545.66406 C 313.04345 545.67918 311.76855 546.21459 310.82227 547.1543 L 234.00586 628.43945 C 228.95677 633.18941 317.95117 554.53906 317.95117 554.53906 C 321.36548 551.33523 319.0587 545.60737 314.37695 545.66406 z M 578.23047 568.86523 C 576.89698 568.88035 575.62206 569.41576 574.67578 570.35547 L 508.87695 641.00586 C 503.83026 645.75586 581.80469 577.74023 581.80469 577.74023 C 585.21892 574.5364 582.91217 568.80858 578.23047 568.86523 z M 315.38477 584.39062 C 314.05126 584.40574 312.77637 584.94116 311.83008 585.88086 L 262.63477 640.50195 C 257.58626 645.25195 318.95898 593.26562 318.95898 593.26562 C 322.37322 590.0618 320.06646 584.33397 315.38477 584.39062 z M 565.72656 616.8457 C 564.39432 616.8646 563.12093 617.39688 562.17578 618.33594 L 550.23047 636.99805 C 545.14043 641.74835 569.29883 625.71875 569.29883 625.71875 C 572.70902 622.51515 570.4052 616.79226 565.72656 616.8457 z "
       transform="scale(0.26458333)"
       id="path1027" />
  </g>
</svg>
